<?xml version="1.0" encoding="UTF-8"?>
<svg id="Layer_2" data-name="Layer 2" xmlns="http://www.w3.org/2000/svg" viewBox="0 0 77.51 92.54">
  <defs>
    <style>
      .cls-1 {
        fill: none;
      }

      .cls-1, .cls-2, .cls-3 {
        stroke-miterlimit: 10;
      }

      .cls-1, .cls-3 {
        stroke: #000;
      }

      .cls-2 {
        stroke: #fff;
      }

      .cls-3 {
        fill: #fff;
      }
    </style>
  </defs>
  <g id="Layer_4" data-name="Layer 4">
    <g>
      <polygon class="cls-3" points="38.3 48.82 .5 27.59 .5 70.73 38.3 91.97 38.42 91.9 38.42 48.75 38.3 48.82"/>
      <path class="cls-2" d="M39.33,91.52l14.08-8.93c-.13-.17,0,.3,0,0v-22c0-.95,6.05-3.46,7-4l8.28-4.05c.95-.54,1.72-.21,1.72,.74v19.56c0,.27,.11-.53,0-.24l6.6-2.82V26.62l-37.68,21.75v43.14Z"/>
      <polygon class="cls-2" points="39.21 .59 1.42 24.86 1.42 26.62 39.21 48.45 39.33 48.38 39.33 47.61 39.33 48.38 77.01 26.62 77.01 23.68 39.21 .59"/>
    </g>
    <circle class="cls-1" cx="65.92" cy="65.09" r="3.5"/>
  </g>
</svg>